# xmcd
#
# Track frame offsets:
#	150
#	18337
#	35875
#	51075
#	71400
#	84262
#	96687
#	109087
#	123087
#	137062
#	152700
#	163000
#	177462
#	192487
#	207925
#	227375
#
# Disc length: 3250 seconds
#
# Revision: 0
# Processed by: cddbd v1.4PL0 Copyright (c) Steve Scherf et al.
# Submitted via: EasyCDDAExtractor 4.6.9.1
#
DISCID=da0cb010
DTITLE=Olivia Newton-John - Love Songs
DYEAR=2000
DGENRE=Country
TTITLE0=I Honestly Love You (1998 Version)
TTITLE1=Can't We Talk It Over In Bed
TTITLE2=Precious Love
TTITLE3=Soul Kiss
TTITLE4=If Not For You
TTITLE5=Loving Ain't Easy
TTITLE6=Long Live Love
TTITLE7=Love Makes Me Strong
TTITLE8=Wrap Me In Your Arms
TTITLE9=A Little More Love
TTITLE10=Clearly Love
TTITLE11=If You Love Me (Let Me Know)
TTITLE12=If We Only Have Love
TTITLE13=Love And Let Live
TTITLE14=No Matter What You Do
TTITLE15=I Honestly Love You (Original Version)
EXTD=
EXTT0=
EXTT1=
EXTT2=
EXTT3=
EXTT4=
EXTT5=
EXTT6=
EXTT7=
EXTT8=
EXTT9=
EXTT10=
EXTT11=
EXTT12=
EXTT13=
EXTT14=
EXTT15=
PLAYORDER=
